<svg width="24" height="25" viewBox="0 0 24 25" fill="none" xmlns="http://www.w3.org/2000/svg">
<path d="M12.0511 4.78929C13.8166 4.78929 15.3988 5.39881 16.6464 6.58929L20.0904 3.1381C18.0083 1.19286 15.2928 0 12.0511 0C7.3571 0 3.29281 2.70119 1.31543 6.63452L5.32376 9.75238C6.27138 6.90357 8.92376 4.78929 12.0511 4.78929Z" fill="#EB4335"/>
<path d="M23.5891 12.3155C23.5891 11.4536 23.5082 10.6286 23.3689 9.83453H12.051V14.4464H18.5272C18.4 15.1951 18.121 15.9098 17.7072 16.5465C17.2934 17.1832 16.7537 17.7285 16.1213 18.1488L20.0141 21.1774C22.2832 19.081 23.5891 15.981 23.5891 12.3155Z" fill="#4285F4"/>
<path d="M12.0511 24.0833C15.294 24.0833 18.025 23.0167 20.0154 21.1774L16.1214 18.1488C15.0476 18.8726 13.6666 19.2941 12.0511 19.2941C8.92376 19.2941 6.27138 17.181 5.32495 14.3322L1.31543 17.4488C3.29162 21.3833 7.3559 24.0845 12.0511 24.0845" fill="#34A853"/>
<path d="M1.31541 17.4488L5.32375 14.3321C5.07734 13.5936 4.95152 12.8202 4.95113 12.0417C4.95113 11.2464 5.08327 10.4762 5.32375 9.75238L1.31541 6.63452C0.471998 8.31208 0.03368 10.164 0.0356511 12.0417V12.0429C0.0356511 13.9881 0.498746 15.8238 1.31541 17.4488Z" fill="#FBBC05"/>
</svg>
